<?xml version="1.0" encoding="utf-8"?>
<!-- Generator: Adobe Illustrator 21.1.0, SVG Export Plug-In . SVG Version: 6.00 Build 0)  -->
<svg version="1.1" id="Layer_1" xmlns="http://www.w3.org/2000/svg" xmlns:xlink="http://www.w3.org/1999/xlink" x="0px" y="0px"
	 viewBox="0 0 24 18" style="enable-background:new 0 0 24 18;" xml:space="preserve">
<style type="text/css">
	.st0{fill:#374256;}
</style>
<path class="st0" d="M4.2,0l3.4,12h10.4L21,5H7.8L7.2,3H24l-4.6,11H6.1L2.7,2H0.7L0,0L4.2,0z M14,16.5c0,0.8,0.7,1.5,1.5,1.5
	c0.8,0,1.5-0.7,1.5-1.5c0-0.8-0.7-1.5-1.5-1.5C14.7,15,14,15.7,14,16.5z M10.5,15C9.7,15,9,15.7,9,16.5c0,0.8,0.7,1.5,1.5,1.5
	s1.5-0.7,1.5-1.5S11.3,15,10.5,15"/>
</svg>
